#define max_width 12
#define max_height 12
static unsigned char max_bits[] = {
   0x00, 0x00, 0x00, 0x00, 0x00, 0x00, 0xe0, 0x01, 0xc0, 0x01, 0x88, 0x01,
   0x18, 0x01, 0x38, 0x00, 0x78, 0x00, 0x00, 0x00, 0x00, 0x00, 0x00, 0x00 };
