#define bullet_width 12
#define bullet_height 12
static unsigned char bullet_bits[] = {
   0x00, 0x00, 0x00, 0x00, 0x20, 0x00, 0x60, 0x00, 0xe0, 0x00, 0xe0, 0x01,
   0xe0, 0x00, 0x60, 0x00, 0x20, 0x00, 0x00, 0x00, 0x00, 0x00, 0x00, 0x00 };
